<svg xmlns="http://www.w3.org/2000/svg" enable-background="new 0 0 1080 1080" viewBox="0 0 1080 1080" id="man-enjoying-skating-on-mountain-covered-with-snow"><path fill="#eef9ff" d="M310.7 163.6c-26.8 10.4-53.4 23.2-72.1 43.2s-28.1 48.7-16.9 72.8c15 32.1 62.5 50.8 62.7 85.6.2 24.9-25.6 43.9-51.7 53-26 9.1-54.9 12.3-78.5 25.6-35.7 20-52.5 58.7-59.3 95.8-7.1 38.5-4.2 82.4 26.3 110.4 38 34.7 100.8 30.8 154.6 23.4 71.8-9.9 143.3-21.5 214.7-33.1 156.6-25.5 313.3-50.9 469.9-76.4 16.8-2.7 34.3-5.7 47.9-14.9 27.1-18.2 29.4-55.7 13.6-82.4-15.8-26.8-44.9-45-73.8-60.7-28.9-15.7-59.5-30.6-81.2-53.9s-32.5-57.7-16.1-84.1c13.9-22.4 43.8-34.4 56.8-57.2 17.2-30.1-2.6-68.5-33.7-87.7-30.9-19.4-421.8-14.5-563.2 40.6z"></path><path fill="#b2def9" d="M1055.8 822.9c-78.5 32.8-503.2 49.6-495.3 81 7.9 31.5 45 35.7 68.4 79.7 14.4 27.2-47.8 31.2-97.7 30.3-51.9-.9-102.4-18.7-142.7-51.5-15.3-12.5-29.3-27.2-38.3-43.9-31.5-58.6 23.1-59.3 18.9-77.4C364.9 823 52.4 851 32.5 823c64-44.8 139.5-49 170.9-49s325.9 8.4 325.9 8.4l526.5 40.5z"></path><path fill="#dcf2ff" d="M1064.9 412.1c-18.1-17.1-40-21.9-67-20.6-4.4.2-9.4 1-12 4s.2 8.7 4.5 7.8c-30.6-14.5-67.1-19.9-101.7-15.2-3.8.5-8 1.4-10.3 4s-.8 7.5 3.1 7.5c-28.5-11.8-79.8 11-74.6 13l258-.5z"></path><path fill="#0e538c" d="M554.9 323.1c8.7-2 17.8-4.2 24.7-9.9s11.1-15.8 7-23.8c-2.9-5.7-9.7-10.2-8.8-16.6.7-5.4 6.8-8.7 7.7-14.1.8-5.4-3.9-9.8-7.1-14.3-5.1-7.2-6.7-16.2-10-24.4s-9.5-16.4-18.3-17.3c-9.9 6.8-12.4 20.2-12.6 32.2-.3 12 .6 24.7-5.2 35.2-3.6 6.4-9.5 11.6-11.3 18.7-2.3 8.9 2.8 18.5 10.2 24.1 7.3 5.6 12.2 7 21.2 9.4l2.5.8z"></path><path fill="#f7f7f7" d="M553.5 330.7c8.6-27.1 6.6-56 2.1-83.6-1.3-8.2-2.9-16.3-4.4-24.5-.1-.5-.8-.3-.7.2 5.2 27.7 10.5 55.9 7.3 84.2-.9 8-2.6 15.9-5 23.6-.1.3.6.5.7.1z"></path><path fill="#f7f7f7" d="M556 252.2c5.8 1.5 11.5-1.9 12.8-7.8.1-.4-.6-.6-.7-.2-1.2 5.5-6.5 8.7-11.9 7.3-.4-.1-.6.6-.2.7zM557.9 268.9c-5.3.7-9.7-3.4-9.5-8.7 0-.5-.7-.5-.7 0-.2 5.8 4.7 10.1 10.4 9.4.4 0 .2-.7-.2-.7zM558.7 284.5c4.8 5.4 13.5 3.6 15.9-3.1.2-.4-.5-.6-.7-.2-2.3 6.3-10.3 7.7-14.7 2.8-.3-.4-.8.1-.5.5zM558 308.1c-6.4-2.5-11-8.3-11.9-15-.1-.5-.8-.3-.7.2 1 7 5.8 13 12.4 15.5.4.2.6-.5.2-.7z"></path><path fill="#2a94f4" d="M472.7 335.9c5.1 2 10.9.3 15-4.3s6.3-12 5.7-19.1c-.4-5.7-2.5-10.9-3.8-16.4-1.8-8-2-16.4-2.8-24.7-.8-8.3-2.5-16.8-6.7-22.9-4.2-6.1-11.6-8.8-16.8-4.2-5.1 4.6-6.1 14.1-9.1 21.4-2 5.1-5.2 9.4-7 14.7-2.9 8.2-5 22-4.3 31 2.4 32.2 29.8 24.5 29.8 24.5z"></path><path fill="#f7f7f7" d="M470.8 340.3c2.8-26.5 5.6-53.6-.5-79.8-.1-.4-.8-.3-.7.2 6.1 26.2 3.3 53.2.5 79.6 0 .5.7.5.7 0z"></path><path fill="#f7f7f7" d="M472.3 274.6c-5.5 3.5-9.6-3.5-11.5-7.6-.2-.4-.8-.1-.6.4 1.3 2.8 2.7 5.9 5.4 7.6 2.2 1.4 4.9 1.7 7.1.3.4-.3 0-.9-.4-.7zM473.8 286.2c3 .7 5.7-1.4 5.8-4.4 0-.5-.7-.5-.7 0-.1 2.6-2.4 4.3-4.9 3.7-.4-.1-.6.6-.2.7zM473.2 294.5c-1.5 2-4.3 1.5-6 0-1.3-1.1-2.2-2.7-3-4.3-.2-.4-.8 0-.6.4 1.2 2.1 2.5 4.6 5 5.5 1.9.7 4.1.3 5.3-1.3.2-.3-.5-.7-.7-.3zM473.4 307.4c5.3 2.1 11.1-1.2 11.9-6.9.1-.5-.6-.6-.7-.2-.7 5.3-6 8.4-11 6.4-.5-.2-.6.5-.2.7zM472.9 313.9c-6.1 1.8-11.5-2.9-11.9-9 0-.5-.7-.5-.7 0 .4 6.5 6.3 11.6 12.8 9.7.4-.1.2-.8-.2-.7zM472.3 324.9c5.3 1.2 10.8-.9 13.9-5.3.3-.4-.4-.7-.6-.4-3 4.1-8.2 6.1-13.1 5-.5-.1-.7.6-.2.7z"></path><path fill="#fff" d="M503.5 353.5c-5.9-2.2-11.9-4.5-16.9-8-4.9-3.5-8.7-8.6-8.6-14 .1-9.2 10.6-15.8 15.1-24.2 5.1-9.5 2.3-21.2 8.5-30.2 1.3-1.9 3.2-3.7 5.7-4.3 3.6-.8 7.3 1 9.8 3.2 3.6 3.1 6 7.2 6.6 11.5.6 3.6-.1 7.4 1.1 10.9 1.3 3.8 4.5 6.9 7.5 9.9 3.8 3.9 7.4 7.9 9.5 12.6s2.3 10.1-.5 14.5c-2.7 4.2-7.7 6.9-12.5 9.4-8 4.2-16.3 8.5-25.7 10"></path><path fill="#cce9ff" d="M504.8 354.8c3.5-3.9 4.8-8.9 5.8-13.9 1.2-5.8 1.9-11.7 2.3-17.6.7-12.2-.5-24.5-3.4-36.4-.1-.4-.8-.3-.7.2 2.8 11.4 4 23.2 3.5 34.9-.3 5.8-.9 11.7-2.1 17.4-1 5.3-2.3 10.8-5.9 14.9-.3.3.2.8.5.5z"></path><path fill="#cce9ff" d="M511.1 302.2c-3.1-.3-5.8-1.7-7.9-3.9-.3-.3-.8.2-.5.5 2.3 2.4 5.2 3.8 8.4 4.1.5.1.5-.7 0-.7zM512.9 314.4c4 .3 7.6-2.3 8.7-6.1.1-.4-.6-.6-.7-.2-.9 3.6-4.3 5.9-8 5.6-.5 0-.4.7 0 .7zM512.5 322.6c-5 2.9-11.2 1.4-14.3-3.5-.2-.4-.9 0-.6.4 3.3 5.2 10 6.9 15.3 3.7.4-.2 0-.9-.4-.6zM511.8 330.6c3.2 4 9.2 3.7 12-.6.3-.4-.4-.7-.6-.4-2.6 3.9-8 4.1-10.9.5-.2-.4-.7.2-.5.5zM510.2 341c-4.9.6-9.7-1.8-12-6.2-.2-.4-.8 0-.6.4 2.4 4.5 7.5 7.2 12.6 6.5.5 0 .5-.7 0-.7z"></path><path fill="#b2def9" d="M426.8 673.7c-65.6 24.4-144.1 10.2-196.9-35.8-23.1-20.1-42.3-48.9-38.6-79.3 2.6-21 15.5-39.1 28-56.1C271.9 430.8 324.9 358.6 390 298c16.2-15.1 37.8-30.5 58.8-23.1 14.3 5 23 19.1 30.1 32.4 21.4 40.2 38.4 82.8 50.5 126.7L426.8 673.7z"></path><path fill="#2a94f4" d="M266.3 493.4c5.1 2 10.9.3 15-4.3s6.3-12 5.7-19.1c-.4-5.7-2.5-10.9-3.8-16.4-1.8-8-2-16.4-2.8-24.7s-2.5-16.8-6.7-22.9c-4.2-6.1-11.6-8.8-16.8-4.2-5.1 4.6-6.1 14.1-9.1 21.4-2 5.1-5.2 9.4-7 14.7-2.9 8.2-5 22-4.3 31 2.4 32.2 29.8 24.5 29.8 24.5z"></path><path fill="#f7f7f7" d="M264.4 497.9c2.8-26.5 5.6-53.6-.5-79.8-.1-.4-.8-.3-.7.2 6.1 26.2 3.3 53.2.5 79.6-.1.4.7.4.7 0z"></path><path fill="#f7f7f7" d="M265.9 432.1c-5.5 3.5-9.6-3.5-11.5-7.6-.2-.4-.8-.1-.6.4 1.3 2.8 2.7 5.9 5.4 7.6 2.2 1.4 4.9 1.7 7.1.3.4-.3 0-.9-.4-.7zM267.4 443.7c3 .7 5.7-1.4 5.8-4.4 0-.5-.7-.5-.7 0-.1 2.6-2.4 4.3-4.9 3.7-.5-.1-.7.6-.2.7zM266.7 452c-1.5 2-4.3 1.5-6 0-1.3-1.1-2.2-2.7-3-4.3-.2-.4-.8 0-.6.4 1.2 2.1 2.5 4.6 5 5.5 1.9.7 4.1.3 5.3-1.3.2-.3-.4-.7-.7-.3zM267 464.9c5.3 2.1 11.1-1.2 11.9-6.9.1-.5-.6-.6-.7-.2-.7 5.3-6 8.4-11 6.4-.5-.2-.7.5-.2.7zM266.4 471.4c-6.1 1.8-11.5-2.9-11.9-9 0-.5-.7-.5-.7 0 .4 6.5 6.3 11.6 12.8 9.7.5-.1.3-.8-.2-.7zM265.9 482.4c5.3 1.2 10.8-.9 13.9-5.3.3-.4-.4-.7-.6-.4-3 4.1-8.2 6.1-13.1 5-.5-.1-.7.6-.2.7z"></path><path fill="#fff" d="M290.8 538c-5.9-2.2-11.9-4.5-16.9-8s-8.7-8.6-8.6-14c.1-9.2 10.6-15.8 15.1-24.2 5.1-9.5 2.3-21.2 8.5-30.2 1.3-1.9 3.2-3.7 5.7-4.3 3.6-.8 7.3 1 9.8 3.2 3.6 3.1 6 7.2 6.6 11.5.6 3.6-.1 7.4 1.1 10.9 1.3 3.8 4.5 6.9 7.5 9.9 3.8 3.9 7.4 7.9 9.5 12.6 2.1 4.7 2.3 10.1-.5 14.5-2.7 4.2-7.7 6.9-12.5 9.4-8 4.2-16.3 8.5-25.7 10"></path><path fill="#cce9ff" d="M292.2 539.2c3.5-3.9 4.8-8.9 5.8-13.9 1.2-5.8 1.9-11.7 2.3-17.6.7-12.2-.5-24.5-3.4-36.4-.1-.4-.8-.3-.7.2 2.8 11.4 4 23.2 3.5 34.9-.3 5.8-.9 11.7-2.1 17.4-1 5.3-2.3 10.8-5.9 14.9-.3.4.2.9.5.5z"></path><path fill="#cce9ff" d="M298.5 486.7c-3.1-.3-5.8-1.7-7.9-3.9-.3-.3-.8.2-.5.5 2.3 2.4 5.2 3.8 8.4 4.1.4 0 .4-.7 0-.7zM300.2 498.9c4 .3 7.6-2.3 8.7-6.1.1-.4-.6-.6-.7-.2-.9 3.6-4.3 5.9-8 5.6-.4-.1-.4.7 0 .7zM299.9 507.1c-5 2.9-11.2 1.4-14.3-3.5-.2-.4-.9 0-.6.4 3.3 5.2 10 6.9 15.3 3.7.3-.3 0-.9-.4-.6zM299.2 515.1c3.2 4 9.2 3.7 12-.6.3-.4-.4-.7-.6-.4-2.6 3.9-8 4.1-10.9.5-.3-.4-.8.1-.5.5zM297.6 525.5c-4.9.6-9.7-1.8-12-6.2-.2-.4-.8 0-.6.4 2.4 4.5 7.5 7.2 12.6 6.5.4-.1.4-.8 0-.7z"></path><path fill="#cce9ff" d="M1055.8 822.9H32.5s111.2-357.6 178-373.7c66.7-16.1 102.7 146.1 130 162.2 27.4 16.1 125-334.4 338.5-401.1 62.7-19.6 116.8 5.7 163.2 56.9 2 2.2 4 4.5 6 6.8 4.3 5 8.4 10.2 12.6 15.5 1.6 2.1 3.3 4.3 4.9 6.5 97.6 133.1 157.6 378.9 190.1 526.9z"></path><path fill="#cce9ff" d="M848.2 274c-4.6 1.7-9.2 3.5-13.7 5.3-10.6 4.3-21 9-31 14.3-10 5.3-19.6 11.3-27.9 18.4-4.1 3.6-8 7.4-11 11.7-3.1 4.2-5.5 8.8-6.8 13.6-1.4 4.8-1.6 9.8-.9 14.8.1.6.2 1.2.3 1.9.1.7.3 1.3.4 2 .3 1.3.6 2.6 1 3.9.7 2.6 1.6 5.1 2.5 7.5 2 4.9 4.5 9.4 7.6 13.8 1.5 2.2 3.2 4.3 5 6.5 1.8 2.2 3.7 4.5 5.5 7.1 1.9 2.7 3.8 5.8 5.1 9.8.6 2 1 4.2 1 6.3.1 2.2-.2 4.3-.6 6.2-.4 2-1 3.8-1.8 5.5-.2.4-.4.8-.5 1.2l-.3.6c-.1.3-.3.6-.5.9l-.2.4-.2.3-.4.6-.6 1c-1.7 2.6-3.3 4.9-5 7.3-6.7 9.5-13.4 18.9-20.1 28.3-13.4 18.8-27 37.5-40.5 56.2l-81.4 112.1-17-12.7 83.5-110.5c13.9-18.4 27.8-36.9 41.5-55.4 6.9-9.2 13.8-18.5 20.5-27.8 1.7-2.3 3.4-4.6 4.9-6.9l.5-.8.4-.6.2-.4c.1-.2.3-.5.4-.7.5-.9.8-1.8 1.1-2.7.5-1.7.6-3 .2-4.5-.3-1.6-1.3-3.5-2.6-5.7-2.7-4.3-6.5-9.1-9.7-14.4-3.3-5.3-6.1-11-8.1-17-1-3-1.8-6-2.5-9-.3-1.5-.6-3-.8-4.6-.1-.8-.2-1.5-.3-2.3l-.3-2.4c-.7-6.4-.2-13.2 1.7-19.5 1.9-6.3 5.2-12 9-17 3.9-5 8.3-9.3 13-13.1 9.5-7.6 19.8-13.6 30.3-18.9 10.5-5.2 21.3-9.7 32.2-13.8 3.6-1.4 7.2-2.7 10.9-4 2 2.6 4 4.9 6 7.2z"></path><path fill="#cce9ff" d="m865.7 296.1-2.7.6c-9.9 2.2-19.7 4.8-29.2 8s-18.9 7-27.6 11.7c-4.3 2.4-8.5 5-12.2 7.9-3.7 3-7.1 6.3-9.3 9.9-1.1 1.8-1.9 3.7-2.4 5.6-.2.9-.3 1.9-.4 2.8v1.4c.1.5.1.9.2 1.5.7 4.8 1.7 9.5 3.2 13.9 1.5 4.4 3.7 8.4 6.4 11.9 2.8 3.5 6.2 6.4 10.3 9.7 2 1.7 4.2 3.5 6.2 5.7 2.1 2.2 4 4.9 5.4 7.8 1.4 3 2.2 6.1 2.6 9.1.2 1.5.3 3 .4 4.5V411.5l-.1 1.3c-.4 3.2-1.1 6-1.9 8.7-.8 2.6-1.7 5.2-2.7 7.7-1.9 5-4.1 9.8-6.3 14.5-4.5 9.4-9.3 18.6-14.3 27.7-10 18.1-20.8 35.7-31.9 53.1-11.1 17.4-22.6 34.5-34.7 51.2-6.1 8.4-22.5 29.6-29 37.8-3.3 4.1-13.3 7.3-15.6 9.3l-7.5-6.1c1.6-1.3 16.7-23.2 20-27.1 6.5-7.7 12.7-15.7 18.8-23.8 12.2-16.2 24-32.8 35.4-49.7 11.4-16.9 22.3-34.1 32.6-51.6 5.1-8.8 10.1-17.6 14.6-26.6 2.2-4.5 4.4-9 6.3-13.5.9-2.3 1.8-4.5 2.5-6.7s1.3-4.4 1.6-6.3l.1-.6v-2.4c0-1.1 0-2.2-.2-3.2-.2-2.1-.7-4-1.4-5.7-.7-1.7-1.8-3.3-3.2-4.9-1.4-1.6-3.1-3.1-5-4.8-3.8-3.3-8.2-7.1-11.6-11.7-3.5-4.6-6-9.9-7.8-15.2-1.7-5.3-2.7-10.7-3.3-16.1-.1-.6-.1-1.5-.2-2.3v-2.4c.1-1.6.4-3.2.8-4.8.8-3.1 2.2-5.9 3.8-8.4 3.3-5 7.5-8.8 11.9-12.1 4.4-3.3 9-6 13.7-8.4 9.5-4.8 19.3-8.5 29.3-11.5 9.7-3 19.6-5.4 29.6-7.3 1.5 2.1 3.1 4.3 4.8 6.5z"></path><path fill="#2a94f4" d="m560.6 731.5-.7-.5c-3.4-2.6-4.1-7.5-1.5-10.9L639 613.7c2.6-3.4 7.5-4.1 10.9-1.5l.7.5c3.4 2.6 4.1 7.5 1.5 10.9L571.5 730c-2.6 3.4-7.5 4.1-10.9 1.5z"></path><path fill="#0b4870" d="M610.7 560.6c-11.6 15.4-29.2 53.8-28.8 58.8.3 5 3.9 33.5 3.9 33.5l22.6-1.5-.3-28.1 28.5-46.3 3.4-.2-19.8 42.9 2.4 30.8 26.7-1.8.5-29.4s28.7-38.5 20.9-53.6c-14.9-9.9-60-5.1-60-5.1z"></path><path fill="#2a94f4" d="M684.2 556.3s-3-12.1-4.1-18.6c32.1-9.5 10.2-37.6 6.2-41.3.7 3-11 52.6-15.6 69.3-10 3-22 3-32.6 2.1-.4 0-.9-.1-1.3-.1-12.6-1.2-23-3.6-25.8-4.1-2.1-2 8.4-48.3 8.7-49.7-21.7 45.3-49.4 36.6-49.4 36.6s-1.7-11.2-1.1-15.4c12.2.1 27.6-35.7 37.8-50.7 10.2-15 22.3-14.6 33-16.8.5-3.2.3-10.9 10.1-12.7 0 0 12.8 2.2 16.4 3 3.6.7 19.6.9 50.7 38.1 33.2 41.4-33 60.3-33 60.3z"></path><path fill="#fcd2b1" d="m663.5 461.3-2.6 6.6-10.3.7-2.9-8.2z"></path><path fill="#0e538c" d="M666.7 460.5c4.5-.8 8.8-2.6 13.3-2.7 7.3 0 13.7 4.6 20.7 6.4 2.9.8 6.2 1 8.8-.4 5.1-2.7 6.2-10.4 11.6-12.3 2.2-.8 4.6-.4 6.9-.7 4.7-.5 9-4 10.5-8.5s.2-9.8-3.2-13.1c-1.7-1.6-3.9-2.9-4.7-5-1.2-3 .7-6.2.9-9.4.4-5.7-5.1-10.5-10.8-11-5.7-.5-11.1 2.5-15.3 6.4-4 3.7-6.4 9.6-11.6 11.5-10.2 3.7-16 4.3-27.1.5-3.1-1.1-5.2-4.3-8.3-5.2-4.1-1.2-8.5.4-12.3 2.4-5 2.7-9.8 6.3-12.2 11.4-2.4 5.1-1.8 10.7 2.8 14 .2 0 3.3 20.4 30 15.7z"></path><path fill="#ffe3ca" d="M669.7 445c.6 8.2-5.3 20.9-13.5 21.5s-15.7-11.3-16.3-19.5c-.6-8.2 5.7-15.3 13.9-15.8s15.3 5.6 15.9 13.8z"></path><path fill="#0e538c" d="M647.7 436c2 3.5 6 5.7 10 5.4 2.6-.2 5.2-1.3 7.7-.6 1.8.4 3.3 1.7 5 2.5 1.7.8 4 1 5.1-.5-1.5-6.3-6.2-11.6-12.1-14.4-2.2-1.1-4.7-1.8-7.2-1.8-3.8 0-7.4 1.9-10.8 3.6-2.1 1.1-4.3 2.3-6 4.1-1.6 1.8-1.6 5-.8 7.3 7.4.6 9.1-5.6 9.1-5.6z"></path><path fill="#ffbe55" d="M569.3 535c-6-4.5-14.8-4.8-16.7-.3-2 4.5 2.5 16.4 4.4 18.7s13.4-3 13.4-3 3.4-11.4-1.1-15.4z"></path><path fill="#cce9ff" d="M646.2 511.8c3 7.5-3.8 26.1-5.9 29.4-1.9 3-5.9 17.6-2.3 26.6-.4 0-.9-.1-1.3-.1-3.3-9.4.6-24 2.5-27.1 2.2-3.4 8.6-21.5 5.8-28.3-4-9.9-1.3-24.7 8.8-43.9l1.4-.1c-13.4 25.4-11.3 37.9-9 43.5z"></path><path fill="#ffbe55" d="M635.4 467c1.1 2.1 3.6 3.1 6 3.3s4.7-.2 7.1-.3c3.8-.1 7.6.8 11.3 1.4 3.8.7 7.7 1.1 11.4.2 3.7-.9 7.2-3.5 8.3-7.2 1.1-3.7-1.1-8.2-4.8-9-2.2-.4-4.4.4-6.6 1.1-6.9 2.3-14.5 2.8-21.7 1.6-2.3-.4-4.6-1-6.9-.9-2.3.1-4.8 1.1-6 3-1.2 2-.7 5.1 1.5 6"></path><path fill="#ffbe55" d="M673.9 465.4c18.7-3.9 32-21.4 50.4-26.6 8.1-2.3 16.7-2 24.9-4.2 14.4-3.9 26.3-16 29.9-30.5 4.8 5.6 8.7 12.1 11.4 19 .8 2 1.5 4.2 1 6.3-.6 2.4-2.7 4.2-4.6 5.7-7.6 6-15.2 12.1-23.8 16.6s-18.3 7.2-28 6.1c-4.7-.5-9.4-2-14.2-1.4-3.6.5-7 2.2-10.3 3.9-5.9 3.1-11.9 6.2-17.8 9.2-4 2.1-8.1 4.2-12.5 4.6-4.4.5-9.4-1.1-11.7-4.9l5.3-3.8zM608.4 651.4l-.1 2.9-.6 16.5-3.9 5.6c-1 1.4-2.3 3.2-3.9 5.5-.1.2-.2.3-.4.5-9.5 13.6-23.8 7.6-24.5 6.7-1.2-1.7 2.5-9 6-15.3 1.7-3 3.4-5.8 4.4-7.5.7-1.1 1.1-1.8 1.1-1.8l-.8-11.5 22.7-1.6z"></path><path fill="#2a94f4" d="M591.7 736.8c-3.6-2.7-4.3-7.9-1.6-11.5l92.4-121.8c2.7-3.6 7.9-4.3 11.5-1.6 3.6 2.7 4.3 7.9 1.6 11.5l-92.4 121.8c-2.7 3.6-7.9 4.3-11.5 1.6z"></path><path fill="#ffbe55" d="M649.2 648.6V666s-3.2 3.7-9.8 11.1c-.6.7-1.3 1.4-1.9 2.2-.9 1-1.9 1.8-2.7 2.7-13.6 15.1-20.2 7.2-22.1 4.5-1-1.4 1.4-6.7 4.2-12 1.5-2.9 3.2-5.8 4.6-8.1 1.6-2.7 2.7-4.5 2.7-4.5l-.8-11.5 25.8-1.8z"></path><path fill="#2a94f4" d="m605.6 684.8-6-.3c0-.7 0-1.4-.1-2.1-.6-3.9-3.3-6.8-6.1-8.4-.5-.3-1.1-.6-1.6-.8-3.2-1.3-7.5-1.7-10.2 1.2l-.6-.6c1.7-3 3.4-5.8 4.4-7.5 2.8-.3 5.7.1 8.7 1.4 1 .4 2 .9 3 1.5 3 1.8 5.3 4.4 6.7 7.2 1.3 2.5 2 5.4 1.8 8.4zM640.9 684.9l-6-.3c.1-.9 0-1.8-.2-2.7-.9-4.4-4.4-7.4-7.6-8.7-3.2-1.3-7.5-1.7-10.2 1.2l-.1-.1c1.5-2.9 3.2-5.8 4.6-8.1 2.6-.2 5.3.3 8 1.4 4.6 1.9 8.1 5.3 10 9.3 1.1 2.6 1.7 5.3 1.5 8z"></path><path fill="#0b4870" d="M479 597.5h166.9v2.7H479z" transform="matrix(.00673 -1 1 .00673 -40.233 1157.316)"></path><path fill="#0b4870" d="M555.2 670.7h13.2v2.7h-13.2z" transform="matrix(.9977 -.06814 .06814 .9977 -44.488 39.845)"></path><path fill="#0b4870" d="M696.9 514.7h2.7v163.1h-2.7z" transform="rotate(-26.311 698.292 596.303)"></path><path fill="#0b4870" d="M721.7 656.7h12.7v2.7h-12.7z" transform="rotate(-31.141 728.005 658.15)"></path><path fill="#ffbe55" d="M557.9 532.5c5 1.5 8.8 4.7 9.1 9.7.3 5-.3 9.8-1.5 10.2-1.2.4-8.9 5.6-11.7.8-2.8-4.8-7.2-23.2 4.1-20.7zM680 537.7c-6-2-10.9-1.5-12.9.9-1.9 2.4 1 15.2 5.8 18.2 4.8 3.1 11.2-.5 11.2-.5l.4-1.3c2.3-6.1.5-13-4.5-17.3z"></path><path fill="#2a94f4" d="M955 819.1c-3.5 4-7.7 6.7-12.2 8-4.6 1.4-9.4 1.3-13.9-.5 0 0-.9.3-2.5.5-.4.1-.8.1-1.3.2-11.3 1.8-44.6 3-47.9-43.4-1.1-15.8 2.6-39.7 7.5-54.1 3.2-9.2 8.6-16.6 12.2-25.5 5.1-12.8 6.8-29.2 15.8-37.3 9-8 21.8-3.3 29.2 7.4 7.3 10.6 10.2 25.5 11.6 39.8 1.3 13 1.6 26.4 4 39.1.2 1.3.5 2.6.8 3.9 2 8.7 5.2 17.1 6.3 26.1.1.7.2 1.4.2 2.1v.4c1.1 12.4-2.7 25.3-9.8 33.3z"></path><path fill="#f7f7f7" d="M930.7 775.9c0 .4 0 .9-.1 1.3-.2 3.9-.4 7.7-.7 11.6v.4c-.2 2.2-.3 4.5-.5 6.7-.3 3.5-.6 6.9-.9 10.4 0 .2 0 .4-.1.6s0 .4-.1.6c-.6 6.6-1.3 13.1-2 19.6-.4.1-.8.1-1.3.2 1.3-12.5 2.6-25.1 3.5-37.7 0-.4.1-.9.1-1.3.8-10.8 1.2-21.6 1.2-32.3v-1.8c-.1-11-.6-21.9-1.9-32.8-.1-.4-.1-.9-.2-1.3-1-8.2-2.4-16.4-4.3-24.5-.2-.8 1-1.1 1.2-.3 1.9 8.3 3.3 16.6 4.3 24.9v.3c.7 6.1 1.2 12.2 1.5 18.4 0 .4 0 .7.1 1.1.9 12 .8 23.9.2 35.9z"></path><path fill="#f7f7f7" d="M928.3 720c-9.6 6.2-16.8-6-20-13.2-.3-.7-1.4-.1-1.1.6 2.2 4.9 4.7 10.3 9.4 13.2 3.8 2.4 8.5 2.9 12.4.5.6-.5 0-1.6-.7-1.1zM930.9 740.1c5.2 1.2 9.9-2.4 10.1-7.7 0-.8-1.2-.8-1.2 0-.2 4.5-4.2 7.5-8.5 6.5-.9-.2-1.2 1-.4 1.2zM929.8 754.5c-2.6 3.4-7.6 2.6-10.5.1-2.3-2-3.8-4.8-5.3-7.4-.4-.7-1.5-.1-1.1.6 2 3.7 4.4 8 8.6 9.6 3.3 1.3 7.1.6 9.2-2.3.6-.6-.4-1.2-.9-.6zM930.1 777c9.3 3.7 19.3-2.1 20.7-12 .1-.8-1.1-1.1-1.2-.3-1.3 9.2-10.5 14.6-19.2 11.1-.7-.3-1 .9-.3 1.2zM929.2 788.3c-10.6 3.1-20.1-5.1-20.7-15.6-.1-.8-1.3-.8-1.2 0 .7 11.3 10.9 20.1 22.3 16.8.7-.2.4-1.4-.4-1.2zM928.2 807.5c9.2 2.1 18.8-1.5 24.3-9.2.5-.7-.6-1.3-1.1-.6-5.2 7.2-14.2 10.6-22.9 8.6-.7-.2-1 1-.3 1.2z"></path><path fill="#fff" d="M972.4 841.3c-10.3-3.9-20.8-7.8-29.3-13.9-8.6-6.1-15.1-14.9-14.9-24.3.2-16.1 18.5-27.5 26.3-42.2 8.8-16.6 4-36.8 14.8-52.6 2.3-3.3 5.5-6.5 9.9-7.5 6.2-1.5 12.7 1.7 17.1 5.5 6.3 5.4 10.4 12.6 11.5 20 1 6.3-.1 12.8 1.9 18.9 2.2 6.6 7.8 12 13 17.3 6.6 6.7 12.9 13.8 16.5 21.9 3.6 8.1 4.1 17.6-.8 25.2-4.7 7.3-13.4 11.9-21.8 16.3-14 7.3-28.4 14.7-44.7 17.4l.5-2z"></path><path fill="#cce9ff" d="M974.8 843.4c6-6.7 8.4-15.5 10.2-24.1 2.1-10.1 3.4-20.3 4-30.6 1.2-21.3-.9-42.7-6-63.4-.2-.8-1.4-.4-1.2.3 4.9 19.8 7 40.3 6 60.7-.5 10.2-1.6 20.3-3.6 30.3-1.8 9.2-3.9 18.7-10.3 25.9-.5.7.3 1.5.9.9z"></path><path fill="#cce9ff" d="M985.7 751.9c-5.4-.5-10.1-2.9-13.8-6.8-.6-.6-1.4.3-.9.9 3.9 4.2 9 6.6 14.7 7.2.8 0 .8-1.2 0-1.3zM988.8 773.2c6.9.6 13.3-4 15.1-10.7.2-.8-1-1.1-1.2-.3-1.7 6.2-7.5 10.3-13.9 9.7-.8 0-.8 1.2 0 1.3zM988.2 787.4c-8.7 5.1-19.5 2.5-24.9-6-.4-.7-1.5-.1-1.1.6 5.8 9.1 17.3 11.9 26.6 6.5.7-.4.1-1.5-.6-1.1zM987 801.4c5.6 7 16 6.4 20.9-1.1.4-.7-.6-1.3-1.1-.6-4.5 6.9-13.9 7.2-19 .9-.4-.7-1.3.2-.8.8zM984.2 819.5c-8.5 1.1-16.8-3.2-20.9-10.7-.4-.7-1.5-.1-1.1.6 4.2 7.9 13 12.5 22 11.3.8 0 .8-1.3 0-1.2z"></path><path fill="#fff" d="M422.7 662.3c-6.5-2.4-13.1-4.9-18.5-8.8s-9.5-9.4-9.4-15.3c.1-10.1 11.7-17.3 16.6-26.6 5.5-10.4 2.5-23.2 9.3-33.1 1.4-2.1 3.5-4.1 6.2-4.7 3.9-.9 8 1.1 10.8 3.5 4 3.4 6.5 7.9 7.3 12.6.6 4-.1 8.1 1.2 11.9 1.4 4.2 4.9 7.6 8.2 10.9 4.2 4.2 8.2 8.7 10.4 13.8 2.3 5.1 2.6 11.1-.5 15.9-2.9 4.6-8.5 7.5-13.8 10.3-8.8 4.6-17.9 9.3-28.1 10.9"></path><path fill="#cce9ff" d="M424.1 663.6c3.8-4.3 5.3-9.7 6.4-15.2 1.3-6.4 2.1-12.8 2.5-19.3.8-13.4-.5-26.9-3.8-40-.1-.5-.9-.3-.8.2 3.1 12.5 4.4 25.4 3.8 38.3-.3 6.4-1 12.8-2.3 19.1-1.1 5.8-2.5 11.8-6.5 16.3-.2.5.4 1 .7.6z"></path><path fill="#cce9ff" d="M431 606c-3.4-.3-6.4-1.8-8.7-4.3-.3-.4-.9.2-.6.6 2.5 2.6 5.7 4.2 9.2 4.5.6 0 .6-.8.1-.8zM433 619.4c4.4.4 8.4-2.5 9.5-6.7.1-.5-.6-.7-.8-.2-1 3.9-4.7 6.5-8.8 6.1-.4 0-.4.8.1.8zM432.6 628.4c-5.5 3.2-12.3 1.6-15.7-3.8-.3-.4-1 0-.7.4 3.6 5.7 10.9 7.5 16.8 4.1.4-.3 0-1-.4-.7zM431.8 637.2c3.6 4.4 10.1 4 13.2-.7.3-.4-.4-.8-.7-.4-2.8 4.3-8.7 4.5-12 .5-.2-.4-.8.2-.5.6zM430.1 648.6c-5.4.7-10.6-2-13.2-6.8-.2-.4-.9 0-.7.4 2.7 5 8.2 7.9 13.8 7.1.6 0 .6-.8.1-.7z"></path><path fill="#0e538c" d="M859.3 350.3c7.3-1.7 15-3.5 20.8-8.3 5.8-4.8 9.3-13.3 5.9-20-2.5-4.8-8.2-8.6-7.4-14 .6-4.5 5.8-7.3 6.5-11.9.7-4.5-3.3-8.3-5.9-12-4.3-6-5.7-13.7-8.4-20.6s-8-13.8-15.4-14.5c-8.3 5.7-10.4 17-10.6 27.1-.2 10.1.5 20.8-4.4 29.6-3 5.4-8 9.8-9.6 15.8-1.9 7.5 2.4 15.6 8.5 20.3 6.2 4.7 10.3 5.9 17.8 7.9l2.2.6z"></path><path fill="#f7f7f7" d="M858.1 356.7c7.3-22.8 5.6-47.1 1.8-70.4-1.1-6.9-2.4-13.7-3.7-20.6-.1-.4-.7-.2-.6.2 4.4 23.3 8.9 47.1 6.1 70.9-.8 6.7-2.1 13.4-4.2 19.8-.1.3.5.4.6.1z"></path><path fill="#f7f7f7" d="M860.3 290.6c4.9 1.3 9.7-1.6 10.7-6.6.1-.4-.5-.5-.6-.2-1 4.6-5.4 7.4-10 6.1-.4 0-.5.6-.1.7zM861.8 304.7c-4.4.6-8.2-2.8-8-7.3 0-.4-.6-.4-.6 0-.2 4.9 3.9 8.5 8.8 7.9.4-.1.2-.7-.2-.6zM862.5 317.8c4.1 4.5 11.3 3.1 13.4-2.6.1-.4-.4-.5-.6-.2-1.9 5.3-8.7 6.5-12.4 2.4-.3-.3-.7.1-.4.4zM861.9 337.7c-5.4-2.1-9.2-7-10.1-12.7-.1-.4-.6-.2-.6.2.9 5.9 4.9 10.9 10.5 13.1.4.1.6-.4.2-.6z"></path><path fill="#2a94f4" d="M805.9 269.1c2.7 1 5.8.2 7.9-2.3 2.1-2.4 3.3-6.3 3-10.1-.2-3-1.3-5.8-2-8.6-1-4.2-1-8.7-1.5-13s-1.3-8.9-3.5-12.1-6.1-4.7-8.8-2.2c-2.7 2.4-3.2 7.4-4.8 11.3-1.1 2.7-2.7 5-3.7 7.7-1.5 4.3-2.6 11.6-2.3 16.4 1.2 17 15.7 12.9 15.7 12.9z"></path><path fill="#f7f7f7" d="M804.9 271.5c1.5-14 3-28.3-.3-42.1-.1-.2-.4-.1-.4.1 3.2 13.8 1.7 28.1.2 42 .1.2.5.2.5 0z"></path><path fill="#f7f7f7" d="M805.7 236.8c-2.9 1.9-5.1-1.8-6.1-4-.1-.2-.4 0-.3.2.7 1.5 1.4 3.1 2.8 4 1.1.7 2.6.9 3.8.1.2-.1 0-.4-.2-.3zM806.5 242.9c1.6.4 3-.7 3.1-2.3 0-.2-.4-.2-.4 0 0 1.4-1.3 2.3-2.6 2-.3-.1-.4.2-.1.3zM806.1 247.3c-.8 1-2.3.8-3.2 0-.7-.6-1.2-1.4-1.6-2.3-.1-.2-.4 0-.3.2.6 1.1 1.3 2.4 2.6 2.9 1 .4 2.1.2 2.8-.7.2-.1-.1-.3-.3-.1zM806.3 254.1c2.8 1.1 5.9-.6 6.3-3.6 0-.2-.3-.3-.4-.1-.4 2.8-3.2 4.4-5.8 3.4-.3-.2-.4.2-.1.3zM806 257.5c-3.2.9-6.1-1.5-6.3-4.7 0-.2-.4-.2-.4 0 .2 3.4 3.3 6.1 6.8 5.1.2-.1.1-.5-.1-.4zM805.7 263.3c2.8.6 5.7-.5 7.4-2.8.1-.2-.2-.4-.3-.2-1.6 2.2-4.3 3.2-6.9 2.6-.4 0-.5.4-.2.4z"></path><path fill="#dcf2ff" d="M1029.5 204.3c-18.2-17.2-40.3-22-67.6-20.8-4.5.2-9.5 1-12.1 4-2.6 3.1.2 8.7 4.6 7.9-30.8-14.6-67.6-20.1-102.5-15.3-3.9.5-8.1 1.4-10.4 4-2.3 2.7-.8 7.5 3.1 7.6-28.7-11.9-80.4 11.1-75.2 13.1l260.1-.5zM468.8 164.6c-26.5-25.1-58.8-32.2-98.6-30.3-6.5.3-13.8 1.4-17.6 5.9-3.8 4.5.3 12.7 6.7 11.5-45-21.3-98.7-29.3-149.6-22.3-5.6.8-11.8 2-15.1 5.9-3.4 3.9-1.1 11 4.6 11-41.9-17.4-117.3 16.2-109.8 19.1l379.4-.8z"></path></svg>