<svg xmlns="http://www.w3.org/2000/svg" width="1163.682" height="1180.006" fill="none" viewBox="157.106 160.431 1163.682 1180.006" id="mountaineer-play-guitar-at-campsite"><path fill="#3A4A16" d="M538.926 1184.33L578.753 1138.47V1114.75H602.181V1144.79L548.025 1216.55C545.1 1220.42 538.926 1218.35 538.926 1213.5V1184.33Z"></path><path fill="#253308" d="M536.395 1184.33L576.222 1138.47V1114.75H599.649V1144.79L545.494 1216.55C542.569 1220.42 536.395 1218.35 536.395 1213.5V1184.33Z"></path><path fill="#3A4A16" d="M581.937 922.452H521.213V950.284H561.696C568.683 950.284 574.347 955.948 574.347 962.935V1114.75C574.347 1116.14 575.48 1117.28 576.877 1117.28H604.709C606.107 1117.28 607.239 1116.14 607.239 1114.75V945.223C607.239 944.821 607.145 944.44 606.978 944.102C605.208 931.858 594.671 922.452 581.937 922.452Z"></path><path fill="#253308" d="M574.348 950.284C574.348 948.887 575.48 947.754 576.878 947.754H597.119C598.517 947.754 599.65 948.887 599.65 950.284V1114.75C599.65 1116.14 598.517 1117.28 597.119 1117.28H576.878C575.48 1117.28 574.348 1116.14 574.348 1114.75V950.284Z"></path><path fill="#DB552B" d="M506.033 808.593V907.271H258.074V907.255C231.41 906.584 210.001 884.758 210.001 857.932C210.001 831.106 231.41 809.28 258.074 808.609V808.593H506.033Z"></path><path fill="#C04923" d="M212.808 874.378H495.912V907.27H258.074V907.255C237.142 906.728 219.448 893.164 212.808 874.378Z"></path><path fill="#7A431C" d="M450.367 808.593H489.072C478.915 799.172 465.314 793.412 450.367 793.412 418.926 793.412 393.438 818.9 393.438 850.341V907.271H408.619V850.341C408.619 827.285 427.311 808.593 450.367 808.593zM323.858 808.593H362.562C352.405 799.172 338.804 793.412 323.858 793.412 292.416 793.412 266.928 818.9 266.928 850.341V907.271H282.109V850.341C282.109 827.285 300.801 808.593 323.858 808.593z"></path><circle cx="49.339" cy="49.339" r="49.339" fill="#D04219" transform="matrix(-1 0 0 1 551.576 808.593)"></circle><circle cx="36.688" cy="36.688" r="34.158" stroke="#DC5531" stroke-width="5.06" transform="matrix(-1 0 0 1 538.926 821.244)"></circle><circle cx="16.446" cy="16.446" r="13.916" stroke="#DC5531" stroke-width="5.06" transform="matrix(-1 0 0 1 518.684 841.486)"></circle><path fill="#495927" d="M526.273 917.391C526.273 911.802 521.742 907.271 516.153 907.271H258.073V1266.56C258.073 1277.74 267.136 1286.8 278.315 1286.8H516.153C521.742 1286.8 526.273 1282.27 526.273 1276.68V917.391Z"></path><path fill="#2B3C0A" d="M237.832 1246.32C237.832 1256.1 245.762 1264.03 255.543 1264.03H437.717C446.101 1264.03 452.898 1257.23 452.898 1248.85V1112.22C452.898 1098.24 441.57 1086.91 427.596 1086.91H263.134C249.16 1086.91 237.832 1098.24 237.832 1112.22V1246.32Z"></path><path fill="#1E2809" d="M237.832 1145.11C237.832 1154.89 245.762 1162.82 255.543 1162.82H402.294C410.679 1162.82 417.476 1156.02 417.476 1147.64V1111.56C417.476 1103.25 421.549 1095.48 428.375 1090.75L433.922 1086.91H263.134C249.16 1086.91 237.832 1098.24 237.832 1112.22V1145.11Z"></path><path fill="#253308" d="M417.477 1241.89C417.477 1254.12 427.389 1264.03 439.616 1264.03V1264.03C446.952 1264.03 452.899 1258.08 452.899 1250.74V1104.63C452.899 1094.84 444.97 1086.91 435.188 1086.91V1086.91C425.406 1086.91 417.477 1094.84 417.477 1104.63V1241.89Z"></path><path fill="#2B3B0A" d="M235.303 932.572C235.303 918.599 246.631 907.271 260.605 907.271H452.899V1026.19H245.423C239.834 1026.19 235.303 1021.66 235.303 1016.07V932.572Z"></path><path fill="#2B3B0A" d="M427.596 932.572C427.596 918.599 438.924 907.271 452.898 907.271V907.271V1026.19H437.716C432.127 1026.19 427.596 1021.66 427.596 1016.07V932.572Z"></path><path fill="#253308" d="M417.477 932.572C417.477 918.599 428.805 907.271 442.778 907.271H452.899V1026.19H427.597C422.008 1026.19 417.477 1021.66 417.477 1016.07V932.572Z"></path><path fill="#3A4A16" d="M452.898 907.271H516.153C521.743 907.271 526.274 911.802 526.274 917.391V1276.68C526.274 1282.27 521.743 1286.8 516.153 1286.8H473.14C461.961 1286.8 452.898 1277.74 452.898 1266.56V907.271Z"></path><path fill="#304207" d="M465.057 1285.12C457.901 1282 452.898 1274.86 452.898 1266.56V1225.72L481.652 1196.96L499.543 1214.85L516.153 1224.81V1233.67L465.057 1285.12Z"></path><path fill="#2B3B0A" d="M495.912 907.271H488.322V979.381C488.322 981.477 490.021 983.176 492.117 983.176V983.176C494.213 983.176 495.912 981.477 495.912 979.381V907.271Z"></path><rect width="15.181" height="10.121" fill="#B1320A" transform="matrix(-1 0 0 1 498.441 1132.46)"></rect><path fill="#D34316" d="M516.152 1152.7C516.152 1144.31 509.356 1137.52 500.971 1137.52H480.73C472.345 1137.52 465.549 1144.31 465.549 1152.7V1210.89H516.152V1152.7Z"></path><path fill="#DB552B" d="M516.152 1210.89H473.139V1152.7C473.139 1144.31 480.842 1137.52 490.344 1137.52H498.947C509.827 1137.52 516.152 1144.31 516.152 1152.7V1210.89Z"></path><rect width="20.241" height="15.181" fill="#D04219" rx="2.53" transform="matrix(-1 0 0 1 500.973 1119.81)"></rect><path fill="#2B3B0A" d="M518.684 1165.35H463.019V1228.6C463.019 1235.59 468.683 1241.26 475.67 1241.26H490.851H506.033C513.02 1241.26 518.684 1235.59 518.684 1228.6V1165.35Z"></path><path fill="#263408" d="M551.125 1170.69L539.77 1178.63V1218.98L568.923 1195.51C569.253 1194.83 569.429 1194.08 569.429 1193.31V1175.75C569.429 1172.96 567.163 1170.69 564.369 1170.69H551.125Z"></path><path fill="#2B3B0A" d="M521.213 1180.81C521.213 1178.02 523.479 1175.75 526.273 1175.75H559.306C562.101 1175.75 564.367 1178.02 564.367 1180.81V1198.37C564.367 1199.58 563.932 1200.75 563.141 1201.67L544.796 1222.98C543.835 1224.1 542.434 1224.74 540.961 1224.74H526.273C523.478 1224.74 521.213 1222.47 521.213 1219.68V1180.81Z"></path><path fill="#B1320A" d="M497.809 1123.6C497.809 1123.25 498.092 1122.97 498.442 1122.97 498.791 1122.97 499.074 1123.25 499.074 1123.6V1131.19C499.074 1131.54 498.791 1131.82 498.442 1131.82 498.092 1131.82 497.809 1131.54 497.809 1131.19V1123.6zM492.749 1123.6C492.749 1123.25 493.032 1122.97 493.381 1122.97 493.731 1122.97 494.014 1123.25 494.014 1123.6V1131.19C494.014 1131.54 493.731 1131.82 493.381 1131.82 493.032 1131.82 492.749 1131.54 492.749 1131.19V1123.6zM488.321 1122.97C487.972 1122.97 487.688 1123.25 487.688 1123.6V1131.19C487.688 1131.54 487.972 1131.82 488.321 1131.82 488.67 1131.82 488.953 1131.54 488.953 1131.19V1123.6C488.953 1123.25 488.67 1122.97 488.321 1122.97zM482.628 1123.6C482.628 1123.25 482.911 1122.97 483.261 1122.97 483.61 1122.97 483.893 1123.25 483.893 1123.6V1131.19C483.893 1131.54 483.61 1131.82 483.261 1131.82 482.911 1131.82 482.628 1131.54 482.628 1131.19V1123.6z"></path><rect width="17.711" height="98.677" x="382.053" y="985.707" fill="#7A431C" rx="2.53"></rect><rect width="17.711" height="98.677" x="278.314" y="985.707" fill="#7A431C" rx="2.53"></rect><rect width="37.953" height="12.651" x="268.195" y="1043.9" fill="#3A4A16" rx="2.53"></rect><rect width="37.953" height="12.651" x="371.932" y="1043.9" fill="#3A4A16" rx="2.53"></rect><circle cx="392.173" cy="1231.13" r="8.856" stroke="#495927" stroke-width="2.53"></circle><circle cx="265.664" cy="1231.13" r="8.856" stroke="#495927" stroke-width="2.53"></circle><path fill="#3A4A16" fill-rule="evenodd" d="M343.843 934.362C342.855 933.374 341.253 933.374 340.265 934.362L320.585 954.042C319.597 955.03 319.597 956.632 320.585 957.62L340.265 977.3C341.253 978.289 342.855 978.289 343.843 977.3L363.524 957.62C364.512 956.632 364.512 955.03 363.524 954.042L343.843 934.362ZM339.04 943.741C338.393 943.741 337.745 943.988 337.251 944.482L328.178 953.555C327.19 954.543 327.19 956.145 328.178 957.133L337.251 966.206C337.745 966.7 338.393 966.947 339.04 966.947V943.741ZM345.149 943.741C345.797 943.741 346.444 943.988 346.938 944.482L356.011 953.555C356.999 954.543 356.999 956.145 356.011 957.133L346.938 966.206C346.444 966.7 345.797 966.947 345.149 966.947V943.741Z" clip-rule="evenodd"></path><path fill="#241B14" d="M737.044 351.307C710.504 349.566 713.419 328.108 713.963 297.751L749.538 289.531C751.458 300.11 751.646 327.275 737.044 351.307Z"></path><path fill="#F7ABA6" d="M757.273 262.905C741.087 262.036 727.586 275.128 727.957 291.334L728.62 320.307C728.666 322.301 729.05 324.272 729.758 326.137C730.469 328.011 731.062 327.693 731.106 329.689L732.514 392.347L729.225 434.676L798.539 434.652L799.4 386.586L803.551 386.66C817.523 386.911 829.052 375.787 829.302 361.816L830.481 296.051C832.098 280.235 820.16 266.279 804.284 265.427L757.273 262.905Z"></path><path fill="#CE5E56" d="M765.525 385.98L802.207 386.638L801.935 401.816L765.525 385.98Z"></path><path fill="#241B14" fill-rule="evenodd" d="M791.428 301.639C786.021 298.474 779.194 299.603 775.083 304.178 774.616 304.698 773.828 304.822 773.266 304.407V304.407C772.704 303.991 772.582 303.195 773.041 302.668 777.928 297.057 786.183 295.637 792.706 299.455L793.631 299.997C794.234 300.35 794.437 301.125 794.084 301.728 793.731 302.331 792.956 302.533 792.353 302.18L791.428 301.639zM808.267 303.875C813.06 299.841 819.98 299.799 824.806 303.613 825.354 304.046 826.151 304.035 826.635 303.531V303.531C827.118 303.026 827.104 302.22 826.563 301.779 820.797 297.075 812.421 297.072 806.638 301.939L805.817 302.629C805.283 303.079 805.214 303.877 805.664 304.412 806.114 304.946 806.912 305.015 807.447 304.565L808.267 303.875z" clip-rule="evenodd"></path><path stroke="#000" stroke-width="2.53" d="M783.088 634.985H826.242V657.744L805.842 681.442H783.088V634.985Z"></path><path stroke="#000" stroke-width="2.53" d="M790.679 624.865H833.833V647.624L813.433 671.322H790.679V624.865Z"></path><path fill="#2B3B0A" d="M784.354 633.72H830.038V658.214L808.953 682.708H784.354V633.72Z"></path><path fill="#2B3B0A" d="M800.377 636.601L860.118 594.818V573.206H895.259V590.889C895.259 597.017 892.483 602.816 887.709 606.658L800.377 676.944V636.601Z"></path><path fill="#2A5F49" d="M731.219 390.541C727.027 390.541 723.629 393.939 723.629 398.131V408.733C723.629 411.333 721.659 413.509 719.072 413.768L673.094 418.373C663.866 418.373 655.551 423.941 652.037 432.474L641.427 458.243C640.574 460.313 640.19 462.545 640.302 464.781L652.037 644.825L647.723 742.237C647.723 750.621 654.52 767.539 662.904 767.539H880.272C888.745 767.539 903.169 750.482 903.042 742.011L891.055 630.909V447.467C890.815 431.329 889.05 415.151 872.91 415.151L818.354 413.464C815.622 413.379 813.45 411.14 813.45 408.406V398.131C813.45 393.939 810.052 390.541 805.86 390.541H731.219Z"></path><rect width="12.651" height="58.194" x="757.786" y="656.21" fill="#1A4E38" rx="2.53" transform="rotate(30 757.786 656.21)"></rect><rect width="12.651" height="58.194" fill="#1A4E38" rx="2.53" transform="scale(-1 1) rotate(30 -1652.522 -1269.276)"></rect><path fill="#235842" d="M685.676 601.201L707.183 449.39L646.458 515.786C645.193 518.737 640.133 530.714 640.133 565.124C640.133 565.124 643.928 635.359 685.676 601.201Z"></path><path stroke="#1A4E38" stroke-width="2.53" d="M738.81 393.07V413.312M764.112 393.07V413.312"></path><path stroke="#1A4E38" stroke-linecap="round" stroke-width="5.06" d="M791.944 393.644L794.475 439.187L808.391 672.045L810.866 683.596C816.667 710.667 814.037 738.866 803.33 764.397V764.397"></path><path fill="#2A5F49" d="M640.133 737.175C640.133 734.38 642.398 732.114 645.193 732.114H900.743C903.537 732.114 905.803 734.38 905.803 737.175V770.067C905.803 772.862 903.537 775.128 900.743 775.128H645.193C642.398 775.128 640.133 772.862 640.133 770.067V737.175Z"></path><path fill="#F7ABA6" d="M754.276 1140.08L822.591 1140.08L812.47 1213.46L744.155 1213.46L754.276 1140.08Z"></path><path fill="#FDD39B" d="M749.216 1178.04L817.531 1178.04L812.47 1213.46L744.155 1213.46L749.216 1178.04Z"></path><path fill="#7A431C" d="M794.524 1199.12C792.334 1203.27 788.028 1205.87 783.336 1205.87L774.372 1205.87C770.257 1205.87 766.557 1203.36 765.029 1199.54V1199.54C763.501 1195.72 759.801 1193.22 755.686 1193.22L744.155 1193.22L739.095 1271.65L777.68 1271.65L796.973 1261.53L816.266 1261.53L842.833 1264.06L854.851 1271.65L893.436 1271.65L895.325 1258.44C897.135 1245.76 889.197 1233.74 876.834 1230.42L843.082 1221.36C833.048 1218.67 825.679 1210.12 824.5 1199.8L823.36 1189.83C822.922 1185.99 819.677 1183.1 815.819 1183.1L807.559 1183.1C804.744 1183.1 802.16 1184.66 800.846 1187.15L794.524 1199.12Z"></path><path fill="#2E1503" d="M740.36 1251.41C743.6 1254.65 747.994 1256.47 752.577 1256.47L895.306 1256.47L895.306 1271.66L847.181 1271.66C846.09 1268.62 843.211 1266.59 839.986 1266.59L839.573 1266.59C836.862 1266.59 834.324 1267.93 832.788 1270.16L831.763 1271.66L811.205 1271.66C808.816 1268.47 805.066 1266.59 801.084 1266.59L796.423 1266.59C792.15 1266.59 788.085 1268.44 785.271 1271.66L739.095 1271.66L740.36 1251.41Z"></path><path fill="#69340E" d="M870.744 1228.79C869.66 1230.04 868.771 1231.48 868.134 1233.07 865.842 1238.8 860.292 1242.56 854.12 1242.56L850.423 1242.56C842.737 1242.56 836.507 1248.79 836.507 1256.47L895.528 1256.47C896.301 1244.54 888.556 1233.56 876.833 1230.42L870.744 1228.79zM743.666 1200.81L752.962 1200.81C756.048 1200.81 758.823 1202.69 759.969 1205.55 761.88 1210.33 766.505 1213.46 771.648 1213.46L789.284 1213.46C794.173 1213.46 798.624 1210.64 800.717 1206.23L806.619 1193.76C807.875 1191.11 810.546 1189.42 813.479 1189.42L823.304 1189.42C822.692 1185.79 819.541 1183.1 815.819 1183.1L807.559 1183.1C804.744 1183.1 802.16 1184.66 800.846 1187.15L794.525 1199.12C792.335 1203.27 788.028 1205.87 783.336 1205.87L774.373 1205.87C770.258 1205.87 766.558 1203.36 765.03 1199.54 763.502 1195.72 759.802 1193.22 755.687 1193.22L744.156 1193.22 743.666 1200.81z"></path><path fill="#F6E5C8" d="M823.892 1194.48L815 1194.48C812.904 1194.48 811.205 1196.18 811.205 1198.28 811.205 1200.38 812.904 1202.07 815 1202.07L824.865 1202.07C824.71 1201.33 824.588 1200.57 824.5 1199.8L824.471 1199.54 815 1199.54C814.302 1199.54 813.735 1198.98 813.735 1198.28 813.735 1197.58 814.302 1197.01 815 1197.01L824.181 1197.01 823.892 1194.48zM826.485 1207.13L817.531 1207.13C815.434 1207.13 813.735 1208.83 813.735 1210.93 813.735 1213.03 815.434 1214.73 817.531 1214.73L831.654 1214.73C830.869 1213.93 830.136 1213.09 829.462 1212.2L817.531 1212.2C816.832 1212.2 816.265 1211.63 816.265 1210.93 816.265 1210.23 816.832 1209.67 817.531 1209.67L827.776 1209.67C827.3 1208.85 826.869 1208 826.485 1207.13z"></path><path fill="#69340E" fill-rule="evenodd" d="M804.88 1186.89C804.88 1202.61 805.459 1214.85 813.597 1223.65C821.705 1232.42 837.031 1237.49 865.492 1240.02L865.716 1237.5C837.248 1234.97 822.845 1229.92 815.455 1221.93C808.096 1213.97 807.41 1202.8 807.41 1186.89L804.88 1186.89ZM741.625 1234.97C753.503 1234.97 763.132 1244.6 763.132 1256.47L765.662 1256.47C765.662 1243.2 754.9 1232.44 741.625 1232.44L741.625 1234.97Z" clip-rule="evenodd"></path><path fill="#CD8C38" d="M823.458 770.64L747.807 770.64L736.323 770.64L731.22 1142.58L835.844 1142.58L873.701 827.276C877.318 797.153 853.797 770.64 823.458 770.64Z"></path><path fill="#CD8C38" d="M645.193 770.64H731.22C745.194 770.64 756.522 781.968 756.522 795.942V859.807C756.522 873.562 745.534 884.797 731.783 885.103L696.923 885.878C668.541 886.51 645.193 863.675 645.193 835.287V770.64Z"></path><path fill="#F7ABA6" d="M1015.87 1143.84L1081.85 1126.16L1099.41 1197.01L1033.42 1214.69L1015.87 1143.84Z"></path><path fill="#FDD39B" d="M1024.72 1179.27L1090.51 1161.56L1099.41 1197.01L1033.42 1214.69L1024.72 1179.27Z"></path><path fill="#7A431C" d="M1078.36 1187.81C1077.32 1192.38 1073.83 1196.01 1069.3 1197.22L1060.64 1199.54C1056.67 1200.61 1052.45 1199.14 1049.98 1195.85V1195.85C1047.52 1192.55 1043.29 1191.09 1039.32 1192.16L1028.18 1195.14L1043.59 1272.21L1080.86 1262.23L1096.88 1247.46L1115.52 1242.47L1141.83 1238.03L1155.41 1242.25L1192.68 1232.27L1191.08 1219.01C1189.55 1206.3 1178.77 1196.74 1165.97 1196.74L1131.02 1196.72C1120.63 1196.72 1111.3 1190.37 1107.49 1180.7L1103.81 1171.37C1102.39 1167.78 1098.51 1165.82 1094.78 1166.82L1086.81 1168.96C1084.09 1169.68 1081.99 1171.86 1081.37 1174.6L1078.36 1187.81Z"></path><path fill="#2E1503" d="M1039.58 1252.34C1043.55 1254.63 1048.26 1255.25 1052.69 1254.06L1190.55 1217.12L1194.48 1231.78L1148 1244.24C1146.16 1241.59 1142.85 1240.38 1139.74 1241.21L1139.34 1241.32C1136.72 1242.02 1134.61 1243.97 1133.71 1246.52L1133.11 1248.23L1113.25 1253.55C1110.12 1251.09 1106.01 1250.25 1102.16 1251.28L1097.66 1252.49C1093.53 1253.59 1090.08 1256.43 1088.2 1260.26L1043.59 1272.21L1039.58 1252.34Z"></path><path fill="#69340E" d="M1159.66 1196.73C1158.94 1198.22 1158.45 1199.84 1158.25 1201.55 1157.52 1207.67 1153.13 1212.74 1147.17 1214.34L1143.6 1215.29C1136.17 1217.28 1131.77 1224.91 1133.76 1232.34L1190.77 1217.06C1188.43 1205.34 1178.1 1196.74 1165.97 1196.74L1159.66 1196.73zM1029.67 1202.6L1038.65 1200.19C1041.63 1199.4 1044.8 1200.49 1046.65 1202.96 1049.73 1207.08 1055.01 1208.91 1059.98 1207.58L1077.01 1203.01C1081.73 1201.75 1085.3 1197.88 1086.18 1193.07L1088.66 1179.5C1089.19 1176.62 1091.33 1174.29 1094.16 1173.53L1103.65 1170.99C1102.12 1167.64 1098.38 1165.85 1094.78 1166.82L1086.81 1168.96C1084.09 1169.68 1081.99 1171.86 1081.37 1174.6L1078.36 1187.81C1077.32 1192.38 1073.83 1196.01 1069.3 1197.22L1060.64 1199.54C1056.67 1200.61 1052.45 1199.14 1049.98 1195.85 1047.52 1192.55 1043.3 1191.09 1039.32 1192.16L1028.18 1195.14 1029.67 1202.6z"></path><path fill="#F6E5C8" d="M1105.53 1175.73L1096.94 1178.03C1094.91 1178.57 1093.71 1180.65 1094.26 1182.68 1094.8 1184.7 1096.88 1185.9 1098.9 1185.36L1108.43 1182.81C1108.09 1182.12 1107.77 1181.42 1107.49 1180.7L1107.4 1180.46 1098.25 1182.91C1097.57 1183.1 1096.88 1182.7 1096.7 1182.02 1096.52 1181.35 1096.92 1180.65 1097.59 1180.47L1106.46 1178.09 1105.53 1175.73zM1111.31 1187.27L1102.66 1189.59C1100.63 1190.13 1099.43 1192.22 1099.97 1194.24 1100.52 1196.26 1102.6 1197.47 1104.62 1196.92L1118.26 1193.27C1117.3 1192.7 1116.37 1192.08 1115.49 1191.39L1103.97 1194.48C1103.29 1194.66 1102.6 1194.26 1102.42 1193.59 1102.24 1192.91 1102.64 1192.22 1103.31 1192.04L1113.21 1189.38C1112.54 1188.72 1111.9 1188.02 1111.31 1187.27z"></path><path fill="#69340E" fill-rule="evenodd" d="M1085.2 1173.31C1089.27 1188.5 1093 1200.16 1103.14 1206.56C1113.24 1212.93 1129.35 1213.87 1157.5 1208.94L1157.06 1206.45C1128.91 1211.38 1113.69 1210.23 1104.49 1204.42C1095.32 1198.64 1091.76 1188.03 1087.65 1172.66L1085.2 1173.31ZM1036.55 1236.12C1048.02 1233.05 1059.81 1239.86 1062.89 1251.33L1065.33 1250.67C1061.89 1237.85 1048.71 1230.24 1035.89 1233.68L1036.55 1236.12Z" clip-rule="evenodd"></path><path fill="#CD8C38" fill-rule="evenodd" d="M1004.48 770.641H771.703V835.677C771.703 863.625 794.359 886.281 822.307 886.281H938.039L1004.38 1161.64L1104.59 1134.97L1058.31 823.795C1057.49 818.285 1055.82 813.129 1053.45 808.432C1047.78 786.688 1028 770.641 1004.48 770.641Z" clip-rule="evenodd"></path><path fill="#8E4B0C" d="M1104.58 1134.79L1105.08 1136.63L1106.71 1136.19L1106.46 1134.51L1104.58 1134.79ZM1004.38 1161.64L1002.54 1162.08L1002.99 1163.98L1004.87 1163.47L1004.38 1161.64ZM1056.1 814.6L1054.23 814.884L1054.23 814.884L1056.1 814.6ZM1009.49 771.688L1009.37 773.581L1009.49 771.688ZM1104.09 1132.96L1003.89 1159.81L1004.87 1163.47L1105.08 1136.63L1104.09 1132.96ZM1006.23 1161.2L934.215 860.021L930.524 860.903L1002.54 1162.08L1006.23 1161.2ZM1054.23 814.884L1102.71 1135.08L1106.46 1134.51L1057.98 814.316L1054.23 814.884ZM975.254 771.268L1009.37 773.581L1009.62 769.794L975.511 767.482L975.254 771.268ZM1057.98 814.316C1054.29 789.972 1034.19 771.46 1009.62 769.794L1009.37 773.581C1032.15 775.126 1050.81 792.3 1054.23 814.884L1057.98 814.316Z" mask="url(#a)"></path><path stroke="#8E4B0C" stroke-width="3.795" d="M645.193 770.64V836.425C645.193 864.373 667.849 887.029 695.797 887.029H732.172C733.583 887.029 734.721 888.183 734.702 889.594L731.255 1140.01C731.236 1141.42 732.374 1142.58 733.785 1142.58H833.6C834.881 1142.58 835.959 1141.62 836.112 1140.35L873.752 827.236C877.343 797.126 853.827 770.64 823.504 770.64"></path><path fill="#1A4E38" fill-rule="evenodd" d="M641.397 732.114C641.397 731.416 641.964 730.849 642.663 730.849H903.272C903.971 730.849 904.537 731.416 904.537 732.114C904.537 732.813 903.971 733.379 903.272 733.379H642.663C641.964 733.379 641.397 732.813 641.397 732.114Z" clip-rule="evenodd"></path><path fill="#2A5F49" d="M1034.37 544.761C1041.12 544.66 1046.76 549.877 1047.18 556.615L1050.45 608.415C1050.88 615.288 1045.74 621.246 1038.87 621.818L920.649 631.673C906.723 632.834 894.493 622.486 893.332 608.561L890.447 573.947C889.23 559.346 900.631 546.766 915.282 546.546L1034.37 544.761Z"></path><path fill="#F7ABA6" d="M1063.94 607.445L1057.61 549.25L1139.85 547.985L1141.41 553.322C1144.4 563.474 1142.32 574.443 1135.82 582.797L1128.46 592.264L1112.94 603.903C1109.88 606.202 1106.15 607.445 1102.31 607.445H1063.94Z"></path><rect width="58.825" height="20.215" x="1063.9" y="552.481" fill="#2A5F49" rx="2.53" transform="rotate(85.235 1063.9 552.481)"></rect><path fill="#2A5F49" d="M949.056 571.761C956.448 593.809 945.14 617.763 923.42 626.068V626.068C899.85 635.081 873.592 622.15 866.366 597.973L827.29 467.236C820.742 445.328 833.323 422.286 855.293 415.949V415.949C876.459 409.844 898.676 421.502 905.678 442.388L949.056 571.761Z"></path><path stroke="#1A4E38" stroke-width="5.06" d="M891.057 468.285V630.908"></path><path fill="#1B130E" d="M803.479 626.432C821.731 694.553 781.306 764.572 713.185 782.825C645.064 801.078 575.045 760.652 556.792 692.532C538.539 624.411 578.965 554.392 647.085 536.139C715.206 517.886 785.226 558.312 803.479 626.432Z"></path><ellipse cx="699.034" cy="654.417" fill="#241B14" rx="118.426" ry="127.694" transform="rotate(-15 699.034 654.417)"></ellipse><ellipse cx="810.499" cy="624.054" fill="#241B14" rx="97.835" ry="104.172" transform="rotate(-15 810.499 624.054)"></ellipse><circle cx="799.709" cy="627.442" r="43.685" fill="#1B130E" transform="rotate(-15 799.709 627.442)"></circle><rect width="23.523" height="87.37" x="647.05" y="623.122" fill="#7A431C" rx="2.06" transform="rotate(-15 647.05 623.122)"></rect><path fill="#7A431C" d="M859.633 591.412C858.548 587.363 860.951 583.201 865 582.116L1174.04 499.309L1188.83 554.489L879.785 637.296C875.736 638.381 871.574 635.978 870.489 631.929L859.633 591.412Z"></path><rect width="97.451" height="77.289" fill="#7A431C" rx="10.081" transform="scale(-1 1) rotate(15 -2398.002 -4505.775)"></rect><path stroke="#683714" stroke-width="3.36" d="M1091.81 523.083L1105.72 575.017M1142.41 510.432L1156.33 562.366M1049.17 532.766L1063.09 584.7M1006.98 544.073L1020.9 596.007M964.784 555.38L978.7 607.314M922.586 566.687L936.502 618.621"></path><rect width="16.802" height="20.162" x="1162.4" y="472.632" fill="#7A431C" rx="4.119" transform="rotate(-15 1162.4 472.632)"></rect><rect width="16.802" height="20.162" x="1188.36" y="465.674" fill="#7A431C" rx="4.119" transform="rotate(-15 1188.36 465.674)"></rect><rect width="16.802" height="20.162" x="1214.33" y="458.716" fill="#7A431C" rx="4.119" transform="rotate(-15 1214.33 458.716)"></rect><rect width="16.802" height="20.162" x="1185.88" y="560.271" fill="#7A431C" rx="4.119" transform="rotate(-15 1185.88 560.271)"></rect><rect width="16.802" height="20.162" x="1211.85" y="553.313" fill="#7A431C" rx="4.119" transform="rotate(-15 1211.85 553.313)"></rect><rect width="16.802" height="20.162" x="1237.81" y="546.355" fill="#7A431C" rx="4.119" transform="rotate(-15 1237.81 546.355)"></rect><path stroke="#fff" stroke-width="2.53" d="M676.82 646.663L1157.56 512.563M681.881 656.784L1162.62 522.684M686.941 684.616L1167.68 550.516M684.411 671.965L1165.15 537.865"></path><path fill="#255340" d="M640.804 434.778C652.448 419.24 673.621 414.401 690.859 423.338V423.338C712.366 434.488 718.963 462.131 704.809 481.792L608.677 615.33C597.927 630.262 578.595 636.279 561.27 630.085V630.085C535.093 620.726 525.459 588.695 542.13 566.449L640.804 434.778Z"></path><path fill="#255340" d="M686.78 586.92C693.413 588.824 697.296 595.692 695.508 602.357L683.708 646.342C681.936 652.946 675.236 656.948 668.581 655.376L562.069 630.223C541.12 625.276 528.446 603.947 534.115 583.182V583.182C539.699 562.727 560.93 550.786 581.31 556.637L686.78 586.92Z"></path><path fill="#F7ABA6" d="M717.427 657.241L696.16 649.26C694.775 648.741 693.775 647.519 693.54 646.059L691.765 635.039C689.432 620.559 698.191 606.591 712.242 602.385L766.007 604.272C777.181 604.664 787.097 611.544 791.375 621.875L794.289 628.909C795.347 631.466 796.08 634.146 796.469 636.886L799.297 656.806C799.658 659.353 797.93 661.726 795.395 662.163L791.021 662.916C788.937 663.275 787.463 665.155 787.612 667.265L788.002 672.802C788.218 675.86 786.227 678.639 783.262 679.418L782.788 679.543C779.532 680.399 776.22 678.365 775.51 675.073L774.705 676.768C772.187 682.065 764.945 682.798 761.418 678.111C762.137 681.447 760.016 684.734 756.68 685.453C753.344 686.172 750.058 684.051 749.338 680.715L746.104 665.712C745.014 660.656 740.031 657.441 734.975 658.531C729.123 659.792 723.032 659.345 717.427 657.241Z"></path><path stroke="#CE5E56" stroke-linecap="round" stroke-width="3.795" d="M737.777 636.858L743.804 640.011C751.813 644.201 757.393 651.903 758.879 660.819L761.58 677.025M753.991 627.687L762.578 634.29C768.962 639.201 773.002 646.557 773.718 654.579L775.498 674.495M766.642 620.096L774.244 625.296C781.303 630.124 785.854 637.837 786.668 646.351L788.148 661.844"></path><rect width="57.965" height="22.437" x="715.027" y="599.375" fill="#255340" rx="2.53" transform="rotate(103.726 715.027 599.375)"></rect><path fill="#BD4C00" d="M714.462 269.896C714.941 243.157 735.219 220.941 761.804 218.03L774.564 216.632C774.778 216.609 774.993 216.613 775.205 216.644L787.907 218.497C814.371 222.358 833.841 245.287 833.362 272.026L833.112 285.966C833.087 287.364 831.934 288.476 830.537 288.451L716.696 286.412C715.299 286.387 714.187 285.234 714.212 283.836L714.462 269.896Z"></path><path fill="#D56011" fill-rule="evenodd" d="M820.417 288.271C821.814 288.296 822.967 287.184 822.992 285.787L823.263 270.649C823.733 244.428 805.001 221.786 779.157 217.335L775.269 216.665C775.157 216.645 775.045 216.634 774.932 216.63C774.788 216.625 774.643 216.632 774.499 216.651L770.59 217.181C744.602 220.704 725.072 242.66 724.602 268.882L724.331 284.019C724.306 285.416 725.418 286.569 726.815 286.594L820.417 288.271ZM820.462 285.741L820.734 270.604C821.125 248.769 807.536 229.54 787.662 222.219C798.961 229.737 806.051 242.643 805.797 256.81L805.284 285.469L820.462 285.741ZM742.553 255.677C742.806 241.51 750.354 228.866 761.915 221.758C741.792 228.362 727.523 247.092 727.132 268.927L726.86 284.065L742.039 284.336L742.553 255.677ZM745.082 255.723L744.569 284.382L759.748 284.654L760.563 239.124C760.685 232.329 763.494 225.976 768.198 221.346C754.601 227.162 745.355 240.506 745.082 255.723ZM781.398 221.583C794.778 227.882 803.54 241.548 803.267 256.765L802.754 285.424L787.575 285.152L788.391 239.622C788.513 232.827 785.933 226.378 781.398 221.583ZM785.045 285.107L785.861 239.577C786.008 231.383 781.796 223.747 774.833 219.493C767.723 223.495 763.24 230.975 763.093 239.169L762.277 284.699L785.045 285.107Z" clip-rule="evenodd"></path><path fill="#241B14" d="M767.29 287.319L714.165 286.368L713.825 305.341C717.454 303.607 733.597 305.96 739.807 306.85C740.898 307.006 741.764 307.841 741.96 308.925L743.933 319.799L747.727 319.867C749.124 319.892 750.222 318.761 750.536 317.399C752.087 310.677 759.701 314.292 764.398 307.512C769.594 300.014 767.29 287.319 767.29 287.319Z"></path><rect width="123.979" height="20.241" x="711.862" y="273.672" fill="#9F4000" rx="2.53" transform="rotate(1.026 711.862 273.672)"></rect><path fill="#F7ABA6" d="M746.402 314.782C747.389 329.983 740.63 329.862 732.292 329.713C723.955 329.563 718.576 322.669 718.726 314.286C718.876 305.903 724.499 299.206 732.836 299.355C741.174 299.505 746.553 306.399 746.402 314.782Z"></path><path fill="#CE5E56" fill-rule="evenodd" d="M728.985 308.422C729.537 307.994 730.332 308.095 730.76 308.648L737.332 317.135C737.76 317.688 737.659 318.482 737.106 318.91C736.554 319.338 735.759 319.237 735.332 318.684L728.759 310.197C728.331 309.645 728.432 308.85 728.985 308.422Z" clip-rule="evenodd"></path><rect width="15.181" height="10.121" x="719.361" y="278.869" fill="#FBBC91" rx="2.53" transform="rotate(1.026 719.361 278.869)"></rect><path fill="#BD4C00" d="M778.658 218.54C778.71 218.3 778.654 218.185 778.658 217.931C778.696 215.835 777.027 214.106 774.931 214.068C772.836 214.03 771.106 215.699 771.069 217.795C771.064 218.049 771.085 218.299 771.128 218.54L778.658 218.54Z"></path><path stroke="#CE5E56" stroke-linecap="round" stroke-linejoin="round" stroke-width="3.795" d="M802.353 323.36L805.853 339.872L799.529 339.759"></path><path stroke="#000" stroke-linecap="round" stroke-width="2.53" d="M776.763 311.413V311.413C776.763 314.906 779.595 317.738 783.088 317.738H785.618C789.112 317.738 791.944 314.906 791.944 311.413V311.413M809.655 311.413V311.413C809.655 314.906 812.487 317.738 815.981 317.738H818.511C822.004 317.738 824.836 314.906 824.836 311.413V311.413"></path><path stroke="#CE5E56" stroke-linecap="round" stroke-width="3.795" d="M804.594 363.281C800.402 363.281 797.004 360.449 797.004 356.956C797.004 353.462 800.402 350.63 804.594 350.63"></path><path fill="#F7ABA6" d="M1096.83 578.348L1089.24 590.999L1104.42 599.855L1138.58 575.818L1141.11 564.432V551.781L1138.58 546.721L1120.87 527.744H1115.81L1113.28 535.335L1115.81 540.395L1110.75 539.13L1106.95 542.925L1105.69 547.986L1099.36 545.455L1094.3 549.251V556.841L1086.71 551.781L1081.65 556.841V560.637L1096.83 578.348Z"></path><path fill="#CE5E56" fill-rule="evenodd" d="M1091.14 555.146C1089.63 553.525 1087.21 553.155 1085.29 554.252C1082.7 555.734 1082.09 559.212 1084.04 561.481L1096.85 576.433C1097.94 577.706 1098.08 579.54 1097.19 580.961L1090.21 592.142C1089.75 592.879 1088.77 593.103 1088.04 592.642C1087.3 592.182 1087.08 591.211 1087.54 590.474L1094.52 579.293C1094.68 579.038 1094.66 578.71 1094.46 578.482L1081.65 563.529C1078.42 559.76 1079.42 553.982 1083.73 551.519C1086.92 549.697 1090.94 550.312 1093.44 553.004L1107.49 568.133C1109.67 570.479 1110.99 573.493 1111.23 576.684L1112.07 587.561C1112.36 591.307 1111.15 595.013 1108.7 597.865L1102.66 604.921C1102.09 605.581 1101.1 605.657 1100.44 605.092C1099.78 604.526 1099.7 603.533 1100.27 602.873L1106.31 595.817C1108.22 593.598 1109.16 590.716 1108.93 587.803L1108.1 576.926C1107.91 574.443 1106.88 572.099 1105.19 570.275L1091.14 555.146Z" clip-rule="evenodd"></path><path fill="#CE5E56" fill-rule="evenodd" d="M1103.78 548.906C1102.24 547.253 1099.77 546.875 1097.81 547.995C1095.21 549.483 1094.56 552.953 1096.46 555.277L1103.11 563.437C1103.66 564.111 1103.56 565.102 1102.89 565.651C1102.21 566.201 1101.22 566.1 1100.67 565.426L1094.02 557.266C1090.9 553.435 1091.96 547.715 1096.25 545.262C1099.48 543.417 1103.55 544.04 1106.09 546.765L1120.08 561.838C1122.26 564.184 1123.58 567.198 1123.82 570.389L1124.66 581.266C1124.95 585.012 1123.74 588.718 1121.29 591.57L1115.25 598.626C1114.68 599.286 1113.69 599.362 1113.03 598.797C1112.37 598.231 1112.29 597.238 1112.86 596.578L1118.9 589.521C1120.81 587.303 1121.75 584.421 1121.52 581.508L1120.69 570.63C1120.5 568.148 1119.47 565.804 1117.78 563.98L1103.78 548.906Z" clip-rule="evenodd"></path><path fill="#CE5E56" fill-rule="evenodd" d="M1116.38 542.628C1114.84 540.965 1112.35 540.586 1110.38 541.711C1107.78 543.201 1107.12 546.668 1109 549.008L1114.51 555.856C1115.05 556.533 1114.94 557.524 1114.27 558.068C1113.59 558.613 1112.6 558.505 1112.05 557.828L1106.55 550.98C1103.45 547.131 1104.54 541.428 1108.82 538.979C1112.06 537.127 1116.15 537.752 1118.69 540.486L1132.67 555.544C1134.85 557.889 1136.17 560.904 1136.41 564.095L1137.25 574.972C1137.54 578.717 1136.33 582.424 1133.88 585.275L1127.84 592.332C1127.27 592.992 1126.28 593.068 1125.62 592.503C1124.96 591.937 1124.88 590.943 1125.45 590.284L1131.49 583.227C1133.4 581.009 1134.34 578.126 1134.11 575.214L1133.28 564.336C1133.09 561.854 1132.06 559.51 1130.37 557.686L1116.38 542.628Z" clip-rule="evenodd"></path><path fill="#CE5E56" fill-rule="evenodd" d="M1122.59 529.946C1121.1 528.337 1118.69 527.97 1116.79 529.059C1114.2 530.539 1113.61 534.019 1115.57 536.266L1127.12 549.48L1124.74 551.551L1113.2 538.336C1109.93 534.592 1110.91 528.792 1115.23 526.326C1118.4 524.512 1122.41 525.124 1124.9 527.804L1138.97 542.954C1141.14 545.3 1142.46 548.314 1142.71 551.505L1143.65 563.703C1143.83 566.021 1143.43 568.339 1142.51 570.455C1142.16 571.251 1141.19 571.507 1140.43 571.073V571.073C1139.68 570.64 1139.43 569.68 1139.76 568.873C1140.38 567.316 1140.64 565.63 1140.51 563.944L1139.57 551.747C1139.38 549.264 1138.35 546.92 1136.66 545.096L1122.59 529.946Z" clip-rule="evenodd"></path><path stroke="#8E4B0C" stroke-width="3.795" d="M732.484 1114.75H838.752M996.17 1131.03L1098.82 1103.53"></path><path stroke="#000" stroke-width="7.591" d="M924.779 322.798V285.556C924.779 283.91 923.232 282.702 921.635 283.101L886.212 291.957C885.086 292.239 884.296 293.251 884.296 294.412V330.389"></path><path stroke="#000" stroke-linecap="round" stroke-width="7.591" d="M965.262 246.893V287.376"></path><circle cx="877.97" cy="330.389" r="10.121" fill="#000"></circle><circle cx="918.454" cy="322.798" r="10.121" fill="#000"></circle><circle cx="958.936" cy="287.376" r="10.121" fill="#000"></circle></svg>